<svg xmlns="http://www.w3.org/2000/svg" width="30" height="28" fill="none" viewBox="0 0 30 28">
    <path fill="#fff" d="M14.63 0a1.22 1.22 0 0 0-1.219 1.217 1.217 1.217 0 0 0 1.22 1.218 1.22 1.22 0 0 0 1.219-1.218A1.216 1.216 0 0 0 14.63 0zM5.148 3.923A1.22 1.22 0 0 0 3.93 5.141a1.216 1.216 0 0 0 1.22 1.217 1.22 1.22 0 0 0 1.218-1.217 1.216 1.216 0 0 0-1.219-1.218zm18.965 0a1.22 1.22 0 0 0-1.22 1.218 1.216 1.216 0 0 0 1.22 1.217 1.22 1.22 0 0 0 1.219-1.217 1.217 1.217 0 0 0-1.22-1.218zM14.63 6.087c-4.706 0-8.534 3.823-8.534 8.522 0 3.39 1.998 6.316 4.877 7.687v3.27A2.44 2.44 0 0 0 13.41 28h2.439a2.439 2.439 0 0 0 2.438-2.435v-3.27c2.879-1.37 4.877-4.296 4.877-7.686 0-4.7-3.828-8.522-8.535-8.522zM1.22 13.391A1.22 1.22 0 0 0 0 14.61a1.216 1.216 0 0 0 1.22 1.217 1.22 1.22 0 0 0 1.218-1.217A1.216 1.216 0 0 0 1.22 13.39zm26.822 0a1.22 1.22 0 0 0-1.22 1.218 1.216 1.216 0 0 0 1.22 1.217 1.22 1.22 0 0 0 1.219-1.217 1.217 1.217 0 0 0-1.22-1.218zM5.148 22.86a1.22 1.22 0 0 0-1.219 1.218 1.217 1.217 0 0 0 1.22 1.217 1.22 1.22 0 0 0 1.218-1.217 1.217 1.217 0 0 0-1.219-1.218zm18.965 0a1.22 1.22 0 0 0-1.22 1.218 1.216 1.216 0 0 0 1.22 1.217 1.22 1.22 0 0 0 1.219-1.217 1.217 1.217 0 0 0-1.22-1.218z"/>
</svg>
