<svg xmlns="http://www.w3.org/2000/svg" width="100" height="100" fill="none" viewBox="0 0 100 100">
    <circle cx="50" cy="50" r="48.25" fill="#DAF9F4" stroke="#fff" stroke-width="3.5"/>
    <path fill="#31E6C9" d="M50.5 27C37.55 27 27 37.55 27 50.5S37.55 74 50.5 74 74 63.45 74 50.5 63.45 27 50.5 27zm0 3.615c11.002 0 19.885 8.884 19.885 19.885 0 11.002-8.884 19.885-19.885 19.885-2.966 0-5.762-.664-8.276-1.808L48 62.787c.82.17 1.624.367 2.5.367 6.962 0 12.654-5.692 12.654-12.654 0-1.85-.41-3.63-1.13-5.197l-1.073-2.387-8.643 8.643-2.867-2.867 8.643-8.643-2.387-1.073a12.532 12.532 0 0 0-5.197-1.13c-6.962 0-12.654 5.692-12.654 12.654 0 .876.198 1.68.367 2.486l-5.79 5.79a19.923 19.923 0 0 1-1.808-8.276c0-11.002 8.884-19.885 19.885-19.885zm0 10.847c.31 0 .565.155.876.197l-7.048 7.033 7.98 7.98 7.033-7.048c.042.311.197.565.197.876a9.01 9.01 0 0 1-9.038 9.038 8.958 8.958 0 0 1-2.627-.395l-1.045-.31-7.852 7.866a19.85 19.85 0 0 1-4.675-4.675l7.867-7.866-.311-1.031a8.958 8.958 0 0 1-.395-2.627 9.01 9.01 0 0 1 9.038-9.038z"/>
</svg>
