<svg xmlns="http://www.w3.org/2000/svg" width="16" height="20" fill="none" viewBox="0 0 16 20">
    <path fill="#31E6C9" d="M7.619 0a5.702 5.702 0 0 0-5.714 5.714v.953A1.91 1.91 0 0 0 0 8.57v9.524A1.91 1.91 0 0 0 1.905 20h11.428a1.91 1.91 0 0 0 1.905-1.905V8.571a1.91 1.91 0 0 0-1.905-1.904v-.953A5.702 5.702 0 0 0 7.62 0zm0 1.905c2.168 0 3.81 1.641 3.81 3.81v.952h-7.62v-.953c0-2.168 1.642-3.81 3.81-3.81zm0 7.619a3.82 3.82 0 0 1 3.81 3.81 3.82 3.82 0 0 1-3.81 3.809 3.82 3.82 0 0 1-3.81-3.81 3.82 3.82 0 0 1 3.81-3.81zm0 1.905a1.904 1.904 0 1 0 1.905 1.904c0-.195-.039-.379-.093-.556a.946.946 0 0 1-.86.556.953.953 0 0 1-.952-.952c0-.384.23-.709.556-.86a1.885 1.885 0 0 0-.556-.092z"/>
</svg>
