<svg xmlns="http://www.w3.org/2000/svg" width="132" height="132" fill="none" viewBox="0 0 132 132">
    <g filter="url(#a)">
        <circle cx="66" cy="66" r="50" fill="#DAF9F4"/>
        <circle cx="66" cy="66" r="48.25" stroke="#fff" stroke-width="3.5"/>
    </g>
    <path fill="#31E6C9" d="M66.5 43C53.55 43 43 53.55 43 66.5S53.55 90 66.5 90 90 79.45 90 66.5 79.45 43 66.5 43zm0 3.615c11.001 0 19.885 8.883 19.885 19.885 0 11.001-8.884 19.885-19.885 19.885-2.966 0-5.762-.664-8.276-1.808L64 78.787c.82.17 1.624.367 2.5.367 6.962 0 12.654-5.692 12.654-12.654 0-1.85-.41-3.63-1.13-5.197l-1.073-2.387-8.643 8.643-2.867-2.867 8.643-8.643-2.387-1.073a12.532 12.532 0 0 0-5.197-1.13c-6.962 0-12.654 5.692-12.654 12.654 0 .876.198 1.68.367 2.486l-5.79 5.79a19.923 19.923 0 0 1-1.808-8.276c0-11.002 8.883-19.885 19.885-19.885zm0 10.846c.31 0 .565.156.876.198l-7.048 7.033 7.98 7.98 7.033-7.048c.042.311.198.565.198.876a9.01 9.01 0 0 1-9.039 9.038 8.958 8.958 0 0 1-2.627-.395l-1.045-.31-7.852 7.866a19.85 19.85 0 0 1-4.675-4.675l7.867-7.866-.311-1.031a8.958 8.958 0 0 1-.395-2.627 9.01 9.01 0 0 1 9.038-9.038z"/>
    <defs>
        <filter id="a" width="132" height="132" x="0" y="0" color-interpolation-filters="sRGB" filterUnits="userSpaceOnUse">
            <feFlood flood-opacity="0" result="BackgroundImageFix"/>
            <feColorMatrix in="SourceAlpha" values="0 0 0 0 0 0 0 0 0 0 0 0 0 0 0 0 0 0 127 0"/>
            <feOffset/>
            <feGaussianBlur stdDeviation="8"/>
            <feColorMatrix values="0 0 0 0 0.153601 0 0 0 0 0.781659 0 0 0 0 0.681031 0 0 0 0.26 0"/>
            <feBlend in2="BackgroundImageFix" result="effect1_dropShadow"/>
            <feBlend in="SourceGraphic" in2="effect1_dropShadow" result="shape"/>
        </filter>
    </defs>
</svg>
