<svg xmlns="http://www.w3.org/2000/svg" width="27" height="27" fill="none" viewBox="0 0 27 27">
    <path fill="#31E6C9" d="M0 12.501a2.843 2.843 0 1 1 5.685.003A2.843 2.843 0 0 1 0 12.501z"/>
    <path fill="#31E6C9" d="M13.645 26.01a2.132 2.132 0 1 0 0-4.264 2.132 2.132 0 0 0 0 4.264z" opacity=".4"/>
    <path fill="#31E6C9" d="M19.54 20.267a2.132 2.132 0 1 1 4.266-.002 2.132 2.132 0 0 1-4.265.002z" opacity=".2"/>
    <path fill="#DADADA" d="M22.736 12.501a2.133 2.133 0 1 1 4.266.005 2.133 2.133 0 0 1-4.266-.005zM12.862 1.421a1.422 1.422 0 1 1 2.84.002 1.422 1.422 0 0 1-2.84-.002zM5.106 4.745a1.067 1.067 0 1 1 2.133-.001 1.067 1.067 0 0 1-2.133.001zM21.67 6.521a1.776 1.776 0 1 0 0-3.553 1.776 1.776 0 0 0 0 3.553z"/>
    <path fill="#31E6C9" d="M3.69 20.265a2.487 2.487 0 1 1 4.974-.003 2.487 2.487 0 0 1-4.974.003z" opacity=".7"/>
</svg>
