<svg xmlns="http://www.w3.org/2000/svg" width="60" height="60" fill="none" viewBox="0 0 60 60">
    <path fill="#FCFCFC" fill-rule="evenodd" d="M30 60c16.569 0 30-13.431 30-30C60 13.431 46.569 0 30 0 13.431 0 0 13.431 0 30c0 16.569 13.431 30 30 30z" clip-rule="evenodd"/>
    <path fill="#6F749A" d="M19.727 20A2.737 2.737 0 0 0 17 22.727v14.546A2.737 2.737 0 0 0 19.727 40h20a2.737 2.737 0 0 0 2.728-2.727V22.727A2.737 2.737 0 0 0 39.727 20h-20zm0 1.818h20c.064 0 .114.021.17.036l-10.17 7.038-10.17-7.038c.057-.014.106-.036.17-.036zm-.909 1.733l10.91 7.557 10.908-7.557v13.722c0 .511-.397.909-.909.909h-20a.897.897 0 0 1-.909-.91v-13.72z"/>
</svg>
