<svg xmlns="http://www.w3.org/2000/svg" width="18" height="18" fill="none" viewBox="0 0 18 18">
    <path fill="#31E6C9" d="M2.044 0A2.055 2.055 0 0 0 0 2.044v13.63c0 1.12.923 2.044 2.044 2.044h13.63a2.055 2.055 0 0 0 2.044-2.044v-2.045h-1.363v2.045a.672.672 0 0 1-.681.68H2.043a.672.672 0 0 1-.681-.68V2.043c0-.383.298-.681.681-.681h13.63c.383 0 .68.298.68.681V4.09h1.364V2.044A2.055 2.055 0 0 0 15.674 0H2.043zM13.26 4.118l-.963.964 3.095 3.095h-9.94V9.54h9.94l-3.095 3.096.963.964L18 8.859l-4.74-4.741z"/>
</svg>
