<svg xmlns="http://www.w3.org/2000/svg" width="60" height="60" fill="none" viewBox="0 0 60 60">
    <path fill="#FCFCFC" fill-rule="evenodd" d="M30 60c16.569 0 30-13.431 30-30C60 13.431 46.569 0 30 0 13.431 0 0 13.431 0 30c0 16.569 13.431 30 30 30z" clip-rule="evenodd"/>
    <path fill="#6F749A" fill-rule="evenodd" d="M37.969 20.66l2.855-2.848 1.364 1.35-2.863 2.862.615.607c2.083 2.083 2.083 5.492 0 7.575l-2.27 2.27.681.682-1.364 1.357-11.502-11.517 1.35-1.349.681.674 2.27-2.263a5.351 5.351 0 0 1 3.792-1.573 5.34 5.34 0 0 1 3.784 1.566l.607.607zm-1.963.75a3.384 3.384 0 0 0-2.428-1.005c-.884 0-1.76.33-2.435 1.004l-2.27 2.27 7.44 7.441 2.27-2.27a3.428 3.428 0 0 0 0-4.863l-2.577-2.578zm-13.008 4.075l-1.349 1.35.674.681-2.27 2.27c-2.083 2.083-2.083 5.493 0 7.576l.607.607-2.848 2.855 1.35 1.364 2.862-2.863.607.615c2.083 2.083 5.492 2.083 7.575 0l2.27-2.27.682.681 1.357-1.364-11.517-11.502zm8.122 10.828l-7.44-7.44-2.27 2.27a3.428 3.428 0 0 0 0 4.863l2.577 2.57a3.415 3.415 0 0 0 4.863 0l2.27-2.263z" clip-rule="evenodd"/>
</svg>
