<svg xmlns="http://www.w3.org/2000/svg" width="18" height="20" fill="none" viewBox="0 0 18 20">
    <path fill="#3EE8CC" d="M8.516 0C6.339 0 3.243.738 1.602 1.156A2.134 2.134 0 0 0 0 3.218v4.588c0 3.512 2.083 6.488 4.1 8.588 2.016 2.1 4.039 3.368 4.039 3.368L8.52 20l.377-.244s2.019-1.296 4.033-3.41c2.015-2.113 4.1-5.082 4.1-8.54V3.218c0-.968-.662-1.82-1.6-2.062h-.002C13.788.738 10.692 0 8.516 0zm0 1.42c1.836 0 4.957.703 6.56 1.11.32.083.536.36.536.688v4.588c0 2.875-1.818 5.581-3.706 7.562-1.699 1.781-3.07 2.659-3.393 2.874-.324-.21-1.691-1.063-3.388-2.83C3.24 13.448 1.42 10.746 1.42 7.806V3.218c0-.332.212-.606.532-.687 1.604-.408 4.728-1.112 6.565-1.112zm5.175 3.223l-6.062 6.063-3.224-3.224L3.4 8.485l4.228 4.227 7.065-7.065-1.003-1.004z"/>
</svg>
