<svg xmlns="http://www.w3.org/2000/svg" width="20" height="18" fill="none" viewBox="0 0 20 18">
    <path fill="#31E6C9" d="M1.929 0C1.4 0 .899.186.542.542.186.894 0 1.396 0 1.93v1.285a.64.64 0 0 0 .643.643H2.57v9.482c0 1.06.784 2.09 1.929 2.09h4.194A5.792 5.792 0 0 0 13.5 18a5.794 5.794 0 0 0 5.786-5.786c0-2.51-1.617-4.63-3.857-5.434V1.93c0-.533-.186-1.035-.543-1.387-.336-.336-.803-.517-1.3-.532A.443.443 0 0 0 13.5 0H1.929zm0 1.286h9.944c-.116.27-.302.507-.302.803v.482H1.286V1.93c0-.247.07-.382.165-.478.096-.095.236-.165.478-.165zm11.571 0c.241 0 .382.07.477.165.095.096.166.231.166.478v4.565c-.216-.025-.422-.065-.643-.065a5.697 5.697 0 0 0-3.586 1.285H5.143V9h3.59a6.007 6.007 0 0 0-.667 1.286H5.143v1.285H7.78c-.026.216-.066.422-.066.643 0 .678.136 1.321.352 1.929H4.5c-.397 0-.643-.312-.643-.804V3.857h8.357a.64.64 0 0 0 .643-.643V2.09c0-.492.246-.803.643-.803zM5.143 5.143v1.286h6.428V5.143H5.143zM13.5 7.714c2.491 0 4.5 2.01 4.5 4.5 0 2.491-2.009 4.5-4.5 4.5a4.493 4.493 0 0 1-4.5-4.5c0-2.49 2.009-4.5 4.5-4.5zM12.857 9v2.571h-2.571v1.286h2.571v2.572h1.286v-2.572h2.571v-1.286h-2.571V9h-1.286z"/>
</svg>
