<svg xmlns="http://www.w3.org/2000/svg" width="60" height="60" fill="none" viewBox="0 0 60 60">
    <path fill="#FCFCFC" fill-rule="evenodd" d="M30 60c16.569 0 30-13.431 30-30C60 13.431 46.569 0 30 0 13.431 0 0 13.431 0 30c0 16.569 13.431 30 30 30z" clip-rule="evenodd"/>
    <path fill="#6F749A" fill-rule="evenodd" d="M30 17.813a12.156 12.156 0 0 0-9.045 4.028l-3.142-3.135v6.607h6.628l-2.153-2.146A10.27 10.27 0 0 1 30 19.686 10.3 10.3 0 0 1 40.313 30 10.3 10.3 0 0 1 30 40.313h-.938v1.874H30c6.724 0 12.188-5.463 12.188-12.187 0-6.724-5.464-12.188-12.188-12.188zm-11.25 11.25a.935.935 0 0 0-.938.937c0 .52.418.938.938.938s.938-.418.938-.938a.935.935 0 0 0-.938-.938zm1.04 5.749a.932.932 0 0 1 1.274.344.936.936 0 0 1-.337 1.282.943.943 0 0 1-1.281-.344.926.926 0 0 1-.095-.71.958.958 0 0 1 .439-.572zm4.541 3.999a.91.91 0 0 0-.769.462.925.925 0 0 0-.095.71.958.958 0 0 0 .44.571.926.926 0 0 0 .71.095.934.934 0 0 0 .227-1.714.85.85 0 0 0-.513-.124zm1.263-12.337l1.161-1.162 3.526 3.527 3.526-3.526 1.162 1.16L31.443 30l3.526 3.526-1.162 1.161-3.526-3.526-3.526 3.526-1.161-1.16L29.12 30l-3.526-3.526z" clip-rule="evenodd"/>
</svg>
