<svg xmlns="http://www.w3.org/2000/svg" width="13" height="45" fill="none" viewBox="0 0 13 45">
    <path fill="#1C1C1C" d="M5.761 44.747a.865.865 0 0 0 1.224 0l5.507-5.508a.866.866 0 0 0-1.224-1.223L6.373 42.91l-4.895-4.895a.865.865 0 0 0-1.224 1.223l5.507 5.508zM7.238.865a.865.865 0 0 0-1.73 0h1.73zm-1.73 1.023a.865.865 0 0 0 1.73 0h-1.73zm1.73 5.159a.865.865 0 0 0-1.73 0h1.73zm-1.73 2.049a.865.865 0 1 0 1.73 0h-1.73zm1.73 5.155a.865.865 0 0 0-1.73 0h1.73zm-1.73 2.063a.865.865 0 0 0 1.73 0h-1.73zm1.73 5.155a.865.865 0 1 0-1.73 0h1.73zm-1.73 2.062a.865.865 0 1 0 1.73 0h-1.73zm1.73 5.155a.865.865 0 0 0-1.73 0h1.73zm-1.73 2.063a.865.865 0 0 0 1.73 0h-1.73zm1.73 5.155a.865.865 0 0 0-1.73 0h1.73zm-1.73 2.05a.865.865 0 1 0 1.73 0h-1.73zm1.73 5.158a.865.865 0 0 0-1.73 0h1.73zM5.508.865v1.023h1.73V.865h-1.73zm0 6.182v2.049h1.73v-2.05h-1.73zm0 7.204v2.063h1.73v-2.063h-1.73zm0 7.218v2.062h1.73V21.47h-1.73zm0 7.217v2.063h1.73v-2.063h-1.73zm0 7.218v2.05h1.73v-2.05h-1.73zm0 7.208v1.023h1.73v-1.023h-1.73z" opacity=".8"/>
</svg>
